<?xml version="1.0" encoding="UTF-8"?>
<svg id="Layer_1" data-name="Layer 1" xmlns="http://www.w3.org/2000/svg" viewBox="0 0 708.66 107.72">
  <defs>
    <style>
      .cls-1 {
        fill: #fff;
      }
    </style>
  </defs>
  <path class="cls-1" d="m19.13,68.56c0,3.56,2.85,6.41,6.31,6.41,3.76,0,6.1-2.14,6.1-5.29,0-4.58-6-5.9-10.99-7.63-10.28-3.66-15.97-8.44-15.97-18.92s9.26-19.73,20.76-19.73c13.53,0,19.94,8.65,20.76,19.94h-14.04c0-3.46-2.14-6.31-6.31-6.31-3.26,0-6.41,1.93-6.41,5.9,0,4.58,5.6,5.39,10.79,6.92,10.89,3.25,15.97,9.36,15.97,18.92,0,10.78-9.16,19.73-20.65,19.73-13.33,0-20.86-8.95-20.86-19.94h14.55Z"/>
  <path class="cls-1" d="m56.16,25.43h25.54c12.51,0,19.84,9.26,19.84,19.53,0,11.39-8.55,19.53-19.84,19.53h-10.68v21.97h-14.85V25.43Zm24.11,26.24c3.87,0,6-3.56,6-7.12,0-3.36-2.03-6.41-6-6.41h-9.26v13.53h9.26Z"/>
  <path class="cls-1" d="m111.11,25.43h25.54c13.12,0,21.67,7.93,21.67,19.43,0,10.68-5.39,16.68-14.45,18.92l16.48,22.68h-18.72l-15.57-22.78v22.78h-14.96V25.43Zm26.96,26.45c3.36,0,5.6-3.46,5.6-7.02s-2.65-6.71-6-6.71h-11.6v13.73h12.01Z"/>
  <path class="cls-1" d="m192.1,23.39h2.65l29.91,63.06h-16.08l-3.05-6.31h-24.11l-2.95,6.31h-16.08l29.71-63.06Zm8.34,46.08l-7.02-15.46h-.2l-7.12,15.46h14.35Z"/>
  <path class="cls-1" d="m217.13,25.43h15.57l12.31,29.4,12.31-29.4h15.57l-26.96,63.06h-1.83l-26.96-63.06Z"/>
  <path class="cls-1" d="m308.19,23.39c19.23,0,32.86,14.34,32.86,32.55s-13.63,32.55-32.86,32.55-32.86-14.34-32.86-32.55,13.53-32.55,32.86-32.55Zm0,50.96c10.79,0,17.7-8.14,17.7-18.41s-6.92-18.41-17.7-18.41-17.7,8.14-17.7,18.41,6.82,18.41,17.7,18.41Z"/>
  <path class="cls-1" d="m351.43,25.43h21.26c18.01,0,31.95,13.22,31.95,30.41,0,16.27-12.41,30.62-31.95,30.62h-21.26V25.43Zm20.96,47.4c9.56,0,16.89-6.71,16.89-16.99,0-9.46-6.41-16.88-16.89-16.88h-6v33.87h6Z"/>
  <path class="cls-1" d="m414.82,25.43h14.96v48.21h26.55v12.82h-41.51V25.43Z"/>
  <path class="cls-1" d="m463.55,25.43h14.96v61.03h-14.96V25.43Z"/>
  <path class="cls-1" d="m484.41,25.43h15.57l12.31,29.4,12.31-29.4h15.57l-26.96,63.06h-1.83l-26.96-63.06Z"/>
  <path class="cls-1" d="m575.48,23.39c19.23,0,32.86,14.34,32.86,32.55s-13.63,32.55-32.86,32.55-32.86-14.34-32.86-32.55,13.53-32.55,32.86-32.55Zm0,50.96c10.79,0,17.7-8.14,17.7-18.41s-6.92-18.41-17.7-18.41-17.7,8.14-17.7,18.41,6.82,18.41,17.7,18.41Z"/>
  <path class="cls-1" d="m632.96,68.56c0,3.56,2.85,6.41,6.31,6.41,3.76,0,6.1-2.14,6.1-5.29,0-4.58-6-5.9-10.99-7.63-10.28-3.66-15.97-8.44-15.97-18.92s9.26-19.73,20.76-19.73c13.53,0,19.94,8.65,20.76,19.94h-14.04c0-3.46-2.14-6.31-6.31-6.31-3.26,0-6.41,1.93-6.41,5.9,0,4.58,5.6,5.39,10.78,6.92,10.89,3.25,15.97,9.36,15.97,18.92,0,10.78-9.16,19.73-20.65,19.73-13.33,0-20.86-8.95-20.86-19.94h14.55Z"/>
  <path class="cls-1" d="m679.77,38.65h-13.63v-13.22h42.53v13.22h-13.84v47.81h-15.06v-47.81Zm-4.38-25.02l.92-1.73,10.89,3.36,10.68-3.36,1.32,1.63-11.19,10.88h-1.42l-11.19-10.78Z"/>
</svg>